<?xml version="1.0" encoding="UTF-8"?> <svg xmlns="http://www.w3.org/2000/svg" width="142" height="41" viewBox="0 0 142 41"><g><g><path fill="#a8a8a8" d="M40.181.322l-28.714 40.21H5.165L33.94.321zM17.923 12.83C17.543 14.411 16.508 15.925 15 17c-1.41.94-3 1.5-5 1.586v-4.04c1.178-.126 2-.737 2.433-1.717zM15.126 2.162c2.106 1.927 3.143 4.989 3.107 8.568H10V7.393h2.535c-.176-1.788-1.16-3.012-2.535-3.34V0c2.068.18 3.79 1 5.126 2.162zM8.279 18.545C3.127 18 0 14.223 0 9.25 0 4.253 3.334.381 8.279 0v4.058c-1.547.337-2.398 1.56-2.72 3.334h2.72v3.338H5.526c.278 1.916 1.197 3.27 2.753 3.678zm30.54 9.28c-.153-1.18-.819-1.742-1.75-1.955v-3.647c4.331.288 6.673 2.38 6.931 5.603zm-1.035 1.376c3.107.517 6.769 1.308 6.769 5.799 0 3.71-3.149 5.687-7.485 5.846v-3.663c1.34-.183 2.165-.726 2.165-1.72 0-1.022-.899-1.463-2.165-1.744v-4.644c.236.041.472.082.716.126zm-9.394-1.376c0-3.524 3.114-5.43 6.998-5.617v3.594c-1.077.134-1.852.641-1.852 1.575 0 .759.757 1.115 1.852 1.374v4.655c-.213-.036-.388-.071-.644-.11-3.073-.517-6.354-1.296-6.354-5.47zm4.835 6.778c.162 1.397.935 2.202 2.163 2.49v3.728c-4.524-.323-7.322-2.618-7.483-6.218zm37.42 6.226c-2.993 0-5.076-2.186-5.076-5.077 0-2.89 2.083-5.095 5.076-5.095 2.994 0 5.096 2.205 5.096 5.095 0 2.89-2.102 5.077-5.096 5.077zm0-7.764c-1.469 0-1.915 1.464-1.915 2.687 0 1.248.446 2.669 1.915 2.669 1.47 0 1.935-1.421 1.935-2.669 0-1.223-.465-2.687-1.935-2.687zm-8.424 1.742c1.953.39 2.455 1.798 2.455 2.595 0 2.598-2.455 3.427-4.676 3.427-2.242 0-4.585-.76-4.678-3.446h3.012c0 .482.205.834.52 1.075.299.222.726.334 1.146.334.64 0 1.514-.26 1.514-1.02 0-.772-.985-.89-1.514-1.019-2-.5-4.511-.556-4.511-3.149 0-2.317 2.511-2.947 4.407-2.947 2.104 0 4.333.612 4.445 3.113h-2.92c0-.408-.148-.667-.421-.833-.248-.167-.601-.242-1-.242-.513 0-1.349.056-1.349.723 0 .908 2.12 1.075 3.57 1.39zm39.866 3.28c0 .816 0 1.705.372 2.464h-3.18c-.112-.297-.149-.551-.186-.907-.819.852-2.028 1.185-3.18 1.185-1.841 0-3.292-.926-3.292-2.909 0-3.13 3.379-2.92 5.616-3.335.54-.11.837-.296.837-.889 0-.696-.874-1-1.525-1-.874 0-1.431.388-1.549 1.203h-3c.068-1.26.662-2.074 1.518-2.575.856-.482 1.97-.667 3.068-.667 2.288 0 4.501.5 4.501 3.225zm-5.002-1.52c-.707.168-1.303.433-1.303 1.224 0 .778.614 1.093 1.322 1.093C98.609 38.884 99.11 38 99 36c-.41.327-1.227.383-1.915.568zm-8.964-5.631h3.161v9.615h-3.161zm0-3.614h3.162v2.41h-3.161zM81.93 38.421c1.071 0 1.654-.63 1.803-1.649H86.8c-.279 2.575-2.287 4.057-4.853 4.057-2.947 0-5.058-1.982-5.058-4.929 0-3.057 1.952-5.243 5.058-5.243 2.399 0 4.537 1.26 4.76 3.799H83.64c-.018-.816-.743-1.39-1.543-1.39-1.767 0-2.096 1.5-2.096 2.834 0 1.243.589 2.52 1.929 2.52zm21.794-11.1h3.161v13.23h-3.16zm19.166-12.615c3.111 0 3.404 2.294 3.404 4.15V24.6h-3.161v-5.652c0-1.037-.503-1.648-1.32-1.648-1.358 0-1.49 1.037-1.49 2.594V24.6h-3.16v-5.466c0-1.134-.335-1.834-1.162-1.834-1.164 0-1.647.648-1.647 2.612V24.6h-3.161V15h3.069v1.299h.037c.577-.964 1.599-1.593 2.77-1.593 1.21 0 2.288.388 2.809 1.556.762-1.02 1.71-1.556 3.012-1.556zM105 24.878c-3 0-5.078-2.187-5.078-5.077S102 14.706 105 14.706c3 0 5.095 2.205 5.095 5.095 0 2.89-2.095 5.077-5.095 5.077zm0-7.763c-1.47 0-1.917 1.463-1.917 2.686 0 1.199.447 2.668 1.917 2.668 1.468 0 1.934-1.469 1.934-2.668 0-1.223-.466-2.686-1.934-2.686zm22.78-5.745h3.162v2.41h-3.161zm0 3.63h3.16v9.6h-3.16zm-44.93 9.878c-2.994 0-5.076-2.187-5.076-5.077s2.082-5.095 5.076-5.095c2.995 0 5.097 2.205 5.097 5.095 0 2.89-2.102 5.077-5.097 5.077zm0-7.763c-1.469 0-1.915 1.463-1.915 2.686 0 1.199.446 2.668 1.915 2.668 1.47 0 1.934-1.469 1.934-2.668 0-1.223-.464-2.686-1.934-2.686zm11.252.185c-1.19 0-1.711 1-1.711 2.056V24.6h-3.162V15h3.07v1.299h.036c.577-.982 1.878-1.593 3.032-1.593 3.216 0 3.477 2.294 3.477 3.724v6.17h-3.161v-4.65c0-1.316.148-2.65-1.581-2.65zm-28.608 4.39c-.576 2.225-2.64 3.188-4.797 3.188-3.144 0-5.282-1.878-5.282-5.115 0-2.945 2.362-5.057 5.207-5.057 3.46 0 5.188 2.594 5.04 5.855h-7.086c.056 1.315.818 2.186 2.157 2.186.763 0 1.506-.352 1.805-1.056zM62.5 18.8c-.055-1.074-.818-1.964-1.878-1.964-1.116 0-1.86.797-2.046 1.964zm76.253 5.8c-.112-.297-.15-.6-.186-.909-.818.853-2.027 1.187-3.18 1.187-1.842 0-3.292-.878-3.292-2.878 0-3.163 3.421-2.922 5.615-3.366.54-.111.837-.297.837-.89 0-.744-.873-1-1.547-1-.85 0-1.409.388-1.558 1.204h-2.957c.056-1.26.652-2.075 1.515-2.575.847-.482 2-.667 3.06-.667 2.287 0 4.5.5 4.5 3.224v4.205c0 .865 0 1.706.372 2.465zm-2.195-3.984c-.706.167-1.302.463-1.302 1.223 0 .778.614 1.094 1.32 1.094 1.507 0 2.009-.853 1.935-2.835-.446.278-1.265.333-1.953.518zM71.81 22.47c1.098 0 1.655-.63 1.805-1.649h3.068c-.28 2.576-2.287 4.058-4.854 4.058-2.901 0-5.058-1.982-5.058-4.929 0-3.057 1.953-5.243 5.058-5.243 2.4 0 4.538 1.294 4.761 3.798h-3.068c-.019-.816-.744-1.39-1.521-1.39-1.79 0-2.069 1.501-2.069 2.835 0 1.241.54 2.52 1.878 2.52z"></path></g></g></svg> 