<?xml version="1.0" encoding="UTF-8"?> <svg xmlns="http://www.w3.org/2000/svg" width="189" height="39" viewBox="0 0 189 39"><g><g><path fill="#a8a8a8" d="M167.817 18.738v1.735a3.472 3.472 0 0 0-.663-.065c-1.35 0-1.817.987-1.817 2.182v3.066h-1.845v-6.8h1.753v1.264h.027c.336-.856 1.247-1.448 2.142-1.448.13 0 .286.026.403.066zm-111.413-6.24h-.818V5.71h.818v1.171h.026c.3-.816 1.195-1.368 2.142-1.368 1.884 0 2.428 1 2.428 2.617v4.367h-.791V8.263c0-1.171-.377-2.054-1.702-2.054-1.297 0-2.077 1.001-2.103 2.329zm97.89-6.788h.817v6.787h-.752v-1.222h-.026c-.429.906-1.333 1.42-2.333 1.42-1.666 0-2.327-1-2.327-2.58V5.71h.818v4.418c.037 1.224.509 1.872 1.791 1.872 1.401 0 2.012-1.344 2.012-2.725zm-91.23 16.619c0 1.814-.986 3.512-2.946 3.512-.806 0-1.57-.356-2.012-1.027h-.028V28h-1.843v-9.144H58v.867c.455-.723 1.183-1.051 2-1.051 2.117 0 3.065 1.724 3.065 3.657zM58 22.276c0 1.105.43 2.158 1.624 2.158 1.208 0 1.598-1.053 1.598-2.158 0-1.079-.429-2.197-1.61-2.197-1.207 0-1.612 1.092-1.612 2.197zM51.544 5.513c2.155 0 3.012 1.908 2.948 3.814h-5.154C49.35 10.537 50 12 51.544 12c1.196 0 1.843-.713 2.103-1.74h.819c-.351 1.54-1.233 2.434-2.922 2.434-2.128 0-3.025-1.694-3.025-3.59 0-1.79.897-3.591 3.025-3.591zm2.13 3.117c-.04-1.25-.806-2.422-2.13-2.422-1.336 0-2.076 1.185-2.206 2.422zm105.762 17.21c-.803 0-1.568-.355-2.011-1.026h-.026V28h-1.843v-9.144h1.753v.867h.025c.441-.723 1.169-1.051 2-1.051 2.103 0 3.051 1.724 3.051 3.657 0 1.814-.987 3.512-2.949 3.512zm-.505-5.761c-1.206 0-1.597 1.092-1.597 2.197s.415 2.158 1.61 2.158c1.208 0 1.597-1.053 1.597-2.158 0-1.079-.43-2.197-1.61-2.197zm10.9 2.631c.053 1.183.624 1.724 1.649 1.724.738 0 1.338-.434 1.455-.883h1.622c-.557 1.605-1.622 2.29-3.142 2.29-2.116 0-3.415-1.472-3.415-3.578 0-2.038 1.375-3.591 3.415-3.591 2.286 0 3.389 1.946 3.259 4.038zm2.998-1.184c-.167-.946-.57-1.447-1.466-1.447-1.17 0-1.507.921-1.531 1.447zM51.882 18.672c2.285 0 3.389 1.946 3.259 4.038h-4.844c.054 1.183.624 1.724 1.65 1.724.74 0 1.336-.434 1.455-.883H55c-.495 1.605-1.598 2.29-3.118 2.29-2.116 0-3.428-1.472-3.428-3.578 0-2.038 1.39-3.591 3.428-3.591zm1.416 2.854c-.169-.946-.571-1.447-1.468-1.447-1.167 0-1.505.921-1.533 1.447zm112.26-9.055l-2.676-6.761h.872L166 11.497l2-5.787h.841l-2.908 7.827c-.468 1.143-.739 1.463-1.765 1.463-.325 0-.492 0-.622-.057v-.697c.195.04.375.066.557.066.727 0 .897-.433 1.17-1.065zM82.566 5.71h.817v6.787h-.817zm104.565 19.946c-.065-.21-.131-.434-.131-.656-.582.615-1.44.84-2.257.84-1.274 0-2.285-.646-2.285-2.037 0-1.54 1.141-1.908 2.285-2.066 1.13-.172 2.18-.132 2.18-.895 0-.842-.545-.922-1.193-.922-.73 0-1.156.29-1.221 1.027h-1.843c.102-1.749 1.65-2.275 3.153-2.275 1.34 0 2.949.328 2.949 1.933v3.538c0 .619.065 1.237.232 1.513zm-.208-3.327c-.31.275-.923.29-1.531.395-.572.118-1.091.276-1.091.998 0 .697.532.868 1.13.868 1.442 0 1.492-1.157 1.492-1.59zM137.175 6.408H136V5.71h1.175V3.672H138V5.71h1.355v.698H138V11c0 .523.07.84.656.878.233 0 .467-.013.7-.039v.71c-.246 0-.48.027-.726.027-1.092 0-1.467-.368-1.455-1.576zm-97.97 23.015H41V31h-1.794zM96 6.408h-1.145V5.71H96V3.672h.842V5.71h1.361v.698h-1.36V11c0 .523.076.84.66.878.234 0 .497-.013.7-.039v.71c-.203 0-.479.027-.726.027-1.09 0-1.477-.368-1.477-1.576zm17.143-.895c2.155 0 3.01 1.908 2.946 3.814h-5.154c.013 1.21.636 2.673 2.208 2.673 1.194 0 1.857-.713 2.103-1.74h.817c-.35 1.54-1.233 2.434-2.92 2.434-2.143 0-3.027-1.694-3.027-3.59 0-1.79.884-3.591 3.027-3.591zm2.129 3.117c-.04-1.25-.806-2.422-2.129-2.422-1.338 0-2.078 1.185-2.208 2.422zm27.799-2.422c-1.014 0-1.765.476-1.791 1.58h-.819c.08-1.59 1.18-2.275 2.715-2.275 1.18 0 2.465.368 2.465 2.184V11.3c0 .315.156.5.48.5.092 0 .195-.027.26-.053v.697c-.182.04-.311.053-.532.053-.849 0-.962-.497-.962-1.184h-.024c-.571.881-1.156 1.381-2.44 1.381-1.234 0-2.248-.618-2.248-1.986 0-1.907 1.825-1.973 3.597-2.184.676-.078 1.05-.17 1.05-.92 0-1.12-.822-1.396-1.751-1.396zM141 10.657c0 .83.721 1.344 1.488 1.344 1.245 0 2.35-.806 2.335-2.135V8.788h-.025c-.104.212-.467.263-.688.3-1.39.252-3.11.24-3.11 1.568zm16.465 1.841h-.817V5.71h.817v1.171h.026c.299-.816 1.194-1.368 2.142-1.368 1.883 0 2.453 1 2.453 2.617v4.367h-.816V8.263c0-1.171-.377-2.054-1.702-2.054-1.297 0-2.077 1.001-2.103 2.329zm-10.171-9.39h.818v9.39h-.818zm-67.13 0H81v9.39h-.837zm99.368 18.458c1.078.25 2.13.645 2.13 1.909 0 1.788-1.533 2.367-3.064 2.367-1.598 0-3.077-.592-3.155-2.395h1.754c.013.816.687 1.144 1.414 1.144.533 0 1.207-.21 1.207-.868 0-.566-.767-.722-2.09-1.053-1.064-.235-2.13-.617-2.13-1.813 0-1.736 1.482-2.184 2.922-2.184 1.48 0 2.818.5 2.96 2.17h-1.753c-.052-.722-.598-.922-1.259-.922-.415 0-1.026.08-1.026.632 0 .672 1.04.763 2.09 1.013zM65.262 5.513c2.155 0 3.012 1.908 2.947 3.814h-5.154c.013 1.21.637 2.673 2.207 2.673 1.195 0 1.844-.713 2.104-1.74h.817c-.35 1.54-1.183 2.434-2.921 2.434-2.129 0-3.024-1.694-3.024-3.59 0-1.79.895-3.591 3.024-3.591zm2.13 3.117c-.04-1.25-.805-2.422-2.13-2.422-1.336 0-2.077 1.185-2.207 2.422zm2.743 3.867h-.819V5.71h.754v1.592h.026c.415-1.093 1.323-1.737 2.531-1.684v.83c-1.48-.08-2.492 1.024-2.492 2.432zm105.357-.053c-.182.04-.312.053-.492.053-.872 0-1-.497-1-1.184-.598.881-1.182 1.381-2.467 1.381-1.234 0-2.247-.618-2.247-1.986 0-1.907 1.832-1.973 3.597-2.184.675-.078 1.05-.17 1.05-.92 0-1.12-.79-1.396-1.752-1.396-1.013 0-1.765.476-1.792 1.58h-.817c.078-1.59 1.18-2.275 2.713-2.275 1.182 0 2.467.368 2.467 2.184V11.3c0 .315.155.5.48.5.091 0 .195-.027.26-.053zm-1.559-3.656h-.026c-.102.212-.467.263-.687.3-1.39.252-3.116.24-3.116 1.568 0 .83.728 1.344 1.494 1.344 1.246 0 2.35-.806 2.335-2.135zm-22.29 9.884c1.425 0 2.451.671 2.451 2.433v4.551h-1.841v-3.854c0-.907-.078-1.657-1.132-1.657-1.038 0-1.232.855-1.232 1.723v3.788H148v-3.814c0-.79.098-1.697-1.071-1.697-.363 0-1.246.238-1.246 1.565v3.946h-1.844v-6.8h1.739v.921h.027c.48-.697 1.18-1.105 2.05-1.105.844 0 1.597.328 1.96 1.132.385-.592 1.09-1.132 2.027-1.132zm-78.26.184v1.264h.025c.336-.856 1.246-1.448 2.142-1.448.13 0 .286.026.45.066v1.735a4.48 4.48 0 0 0-.71-.065c-1.35 0-1.817.987-1.817 2.182v3.066H71.63v-6.8zM75.94 6.208c-1.014 0-1.765.476-1.791 1.58h-.819c.078-1.59 1.182-2.275 2.67-2.275 1.226 0 2.51.368 2.51 2.184V11.3c0 .315.156.5.49.5a.752.752 0 0 0 .25-.053v.697c-.181.04-.311.053-.532.053-.83 0-.96-.497-.96-1.184h-.027c-.57.881-1.155 1.381-2.44 1.381-1.233 0-2.291-.618-2.291-1.986 0-1.907 1.876-1.973 3.641-2.184.676-.078 1.052-.17 1.052-.92 0-1.12-.792-1.396-1.753-1.396zm-2.077 4.448c0 .83.727 1.344 1.494 1.344 1.245 0 2.35-.806 2.336-2.135V8.788h-.026c-.105.212-.467.263-.667.3-1.41.252-3.137.24-3.137 1.568zm8.703-7.55h.817v1.33h-.817zM32.53 36.756c.563.494.815 1.471.687 2.244-.892 0-1.662-.25-2.216-.77-.422.12-1 .519-1.297.77-.15-.393-.27-.817-.5-1.127-1.966 1.34-3.525.755-7.055.869v-.102c1.137-.426 1.502-.64 2.36-1.063 1.88-.987 2.212-2.066 3.956-2.132.12-.758.064-.848.01-1.31.42.032.857.128 1.22.053-.015-1.08.41-1.715.61-2.022.16-.252.216-.364.502-.789C31.813 29.88 32.517 27.853 33 26h.128l.086 6.123c-.106 1.182-.335 1.67-.976 2.651.292.226.762.484 1.052.65-.29.391-.651.854-.761 1.332zm-2.089-1.538c.117-.023.34.048.34.048.973-2.578 1.976-5.387 2.22-8.79-.238 1.011-.074 1.092-1 3.524-.738 1.917-2.306 3-1.805 4.646 0 0 .044.354.245.572zm-.756.46l.005-.014a.71.71 0 0 1 .13-.17.863.863 0 0 1 .089-.078l-.005-.01-1.07-.902s.167.352-.01.923c0 0 .34-.003.86.252zm-.094.756a.972.972 0 0 1-.052-.339c-.288-.163-.538-.232-.927-.271C27 35.734 26.203 37.37 24 38.156l-1.33.433c2.56-.372 5.536-1.32 6.897-2.155zm.773.633l-.013.002c-.116-.012-.233-.069-.35-.069-.102.232-.172.386-.5.667.244.273.28.678.341.846zm.487-1.295a.527.527 0 0 0-.755-.002c-.208.23-.21.552-.002.764a.529.529 0 0 0 .755.004.546.546 0 0 0 .002-.766zm.344.947c-.083.121-.263.281-.382.281.093.385.072.479.314.761.385.476 1.119.84 1.739.782zM32 35.072v-.007a.236.236 0 0 0-.051.05c-.005.056-.22.393-.64.648l.007.02c.04.09.063.217.068.282l.015-.065s1.204-.357 1.433-.453c-.326-.069-.832-.426-.832-.475zM69.12 39c-.987 0-1.806-.304-2.207-1.053h-.026v.869h-1.753v-9.391H67v3.42c.457-.698 1.289-1.013 2.12-1.013 1.338 0 2.778 1.092 2.778 3.576 0 2.5-1.44 3.592-2.778 3.592zm-.637-5.762c-1.09 0-1.57 1.04-1.57 2.184 0 1.132.48 2.172 1.57 2.172 1.092 0 1.57-1.04 1.57-2.172 0-1.145-.478-2.184-1.57-2.184zM.762 2.213C.196 1.72-.054.74.073 0 1-.068 1.737.221 2.257.74 2.71.62 3.309.224 3.587 0c.15.363.27.79.5 1.098 1.966-1.34 3.525-.755 7.055-.87V.33C10 .757 9.642.94 8.782 1.396 6.9 2.379 6.567 3.46 4.823 3.527c-.117.757-.06.846-.01 1.31-.42-.035-.814-.128-1.217-.055C3.61 5.865 3.184 6.497 3 6.806c-.173.25-.232.361-.516.788C1.48 9.09.774 11.119.248 13H.162L.076 6.845c.106-1.179.335-1.668.976-2.65-.29-.253-.72-.482-1.052-.648.26-.391.653-.852.762-1.334zm2.086 1.54c-.114.023-.338-.048-.338-.048C1.54 6.281.534 9.09.265 12.497.528 11.484.364 11.405 1.295 9 2 7.052 3.598 6 3.097 4.325c0 0-.096-.325-.248-.572zm.758-.461l-.004.015a.815.815 0 0 1-.22.247l.004.008 1.071.905s-.123-.352.008-.925c0 0-.339.005-.859-.25zm.095-.755c.029.104.064.229.051.338.248.125.58.234.928.269 1.63.096 2.408-1.541 4.572-2.33l1.369-.432c-2.56.37-5.539 1.321-6.898 2.154zm-.773-.633l.014-.002c.116.009.23.046.333.098h.01c.109-.262.177-.417.505-.696C3.546 1 3.512.627 3.447.457zm-.49 1.294a.53.53 0 0 0 .756.004.545.545 0 0 0 .003-.765.527.527 0 0 0-.755-.002.545.545 0 0 0-.003.763zm-.343-.947c.084-.119.264-.251.383-.251-.091-.414-.072-.507-.314-.79C1.78.733 1 .37.425.427zm-.8 1.648v.007c.004 0 .05-.045.046-.05.007-.054.22-.393.659-.647v-.02a.522.522 0 0 1-.094-.285l-.014.015s-1.204.41-1.434.505c.326.069.8.426.836.475zM83.93 29.425h1.843v9.39H83.93zM.333 19.463C.333 8.824 7.637.198 16.643.198 25.653.198 33 8.824 33 19.463c0 10.64-7.348 19.266-16.356 19.266-9.007 0-16.311-8.626-16.311-19.266zM28 28.663c1.48-2.663 2.328-5.795 2.328-9.2 0-3.403-.847-6.566-2.328-9.2zm0 2.405c2.255-3.125 3.603-7.176 3.603-11.605C31.603 15 30.255 11 28 7.86v1.3c1.82 2.84 2.884 6.438 2.884 10.303 0 3.868-1.064 7.435-2.884 10.304zM5.272 10.245C3.812 12.88 3 16.05 3 19.463c0 3.412.813 6.537 2.272 9.22zm0-2.4C3 11 1.685 15 1.685 19.463 1.685 23.898 3 28 5.272 31.083v-1.3c-1.799-2.871-2.867-6.444-2.867-10.32 0-3.874 1.068-7.463 2.867-10.318zm6.429 27.699a13.575 13.575 0 0 1-2.96-1.82v.925a14.115 14.115 0 0 0 2.96 1.696zM11.7 4a13.706 13.706 0 0 0-2.96 1.939V33a13.63 13.63 0 0 0 2.96 1.914zm0-1.42c-1.044.42-2.035 1.011-2.96 1.7v.922c.919-.737 1.91-1.35 2.96-1.82zm6.428 33.933a11.814 11.814 0 0 1-2.96 0v.747a12.526 12.526 0 0 0 2.96-.002zM18.13 3c-.487-.068-.984-.1-1.486-.1-.496 0-.988.032-1.474.1v32.932c.486.068.978.068 1.474.068.502 0 1 0 1.486-.068zm0-1.33c-.487-.057-.984-.09-1.486-.09-.495 0-.988.033-1.474.087v.745a12.2 12.2 0 0 1 1.474-.092c.502 0 1 .034 1.486.094zm6.427 32.046a13.465 13.465 0 0 1-2.958 1.823v.803a14.003 14.003 0 0 0 2.958-1.7zm0-27.769A13.852 13.852 0 0 0 21.598 4v30.91A13.756 13.756 0 0 0 24.556 33zm0-1.66c-.922-.689-1.913-1.287-2.958-1.702v.804a13.365 13.365 0 0 1 2.958 1.821zm56.023 25.138h1.843v9.39h-1.843zM79 18.856h1.37v1.25H79v3.368c0 .63.174.788.798.788.202 0 .376-.013.571-.053v1.46a6.972 6.972 0 0 1-1.078.066c-1.128 0-2.116-.264-2.116-1.618v-4.01h-1.117v-1.25h1.117v-2.039H79zm.095 18.446c0 .619.065 1.238.233 1.514H77.46a2.813 2.813 0 0 1-.132-.658c-.583.616-1.44.842-2.259.842-1.271 0-2.284-.646-2.284-2 0-1.578 1.143-1.946 2.284-2.104 1.13-.17 2.183-.132 2.183-.896 0-.8-.546-.92-1.195-.92-.702 0-1.156.29-1.221 1.026H73c.097-1.748 1.642-2.274 3.148-2.274 1.338 0 2.947.302 2.947 1.932zm-1.843-1.814c-.312.275-.962.29-1.533.395-.572.117-1.091.316-1.091.998 0 .698.532.869 1.13.869 1.442 0 1.494-1.158 1.494-1.566zM33.29 3.582c-.29.164-.76.418-1.052.646.641.982.87 1.472.976 2.653L33.128 13H33c-.483-1.85-1.187-3.876-2.194-5.375-.286-.424-.343-.535-.502-.788-.2-.308-.625-.94-.61-2.022-.363-.074-.8.022-1.22.053.054-.46.11-.551-.01-1.31-1.744-.065-2.076-1.146-3.955-2.131C23.65 1 23.285.79 22.148.364V.261c3.53.115 5.089-.469 7.055.87.23-.31.35-.736.5-1.131.297.256.875.655 1.297.774C31.554.252 32.324 0 33.216 0c.128.775-.124 1.752-.687 2.246.11.48.471.942.761 1.336zm-2.096-1.298L32.864.46c-.62-.057-1.353.306-1.738.782-.242.282-.221.375-.314.757.119 0 .3.164.382.284zM30 2c.117 0 .234-.055.35-.065l.013.002L29.84.489c-.061.171-.097.574-.34.847.327.28.397.434.499.664zm-.462.907a.959.959 0 0 1 .052-.337h-.023C28.207 1.734 25.23.785 22.669.415L24 .848c2.203.786 3 2.423 4.61 2.33.39-.037.64-.108.928-.27zm.37.681a.74.74 0 0 1-.22-.249l-.004-.014c-.521.257-.86.25-.86.25.176.572.009.923.009.923l1.07-.901zm.942-.355c.208-.233.208-.556-.002-.767a.53.53 0 0 0-.755.004c-.208.212-.206.53.002.764.21.211.547.211.755-.001zm-.41.554c-.2.213-.245.57-.245.57C29.694 6 31.262 7.088 32 9c.926 2.436.762 2.517 1 3.528-.244-3.404-1.248-6.213-2.22-8.788 0 0-.223.069-.34.047zm.944-.85a1.008 1.008 0 0 1-.068.285l-.007.02c.42.253.635.592.64.647-.003.004.051.05.051.05v-.007c0-.051.506-.406.832-.475C32.603 3.359 31.398 3 31.398 3zm11.938 9.757c-2.921 0-4.376-2.327-4.376-4.893 0-2.565 1.455-4.892 4.376-4.892C45.269 2.909 46.853 4 47.19 6h-.882c-.117-1.053-1.221-2.328-2.986-2.328-2.454 0-3.493 2.078-3.493 4.129 0 2.051 1.04 4.13 3.493 4.13 2.05 0 3.246-1.46 3.207-3.446h-3.155v-.763h3.934v4.775h-.636l-.117-1.709h-.026c-.624 1.34-1.87 1.906-3.207 1.906zM39.206 32H41v6.816h-1.794zm19.991 3.87c.052 1.182.624 1.724 1.65 1.724.739 0 1.336-.463 1.453-.884h1.624C63.404 38.316 62.3 39 60.782 39c-2.117 0-3.428-1.472-3.428-3.578 0-2.038 1.388-3.59 3.428-3.59 2.285 0 3.387 1.945 3.218 4.038zm3-1.184c-.197-.946-.572-1.448-1.469-1.448-1.167 0-1.505.923-1.53 1.448zm-22.849-9.03v-9.39h4c2.401 0 4.207 1.525 4.207 4.642 0 2.722-1.377 4.748-4.207 4.748zM42.841 18h-1.453v5.92h1.817c1.18 0 2.31-.736 2.31-2.815 0-1.893-.65-3.105-2.674-3.105zm11.797 15.279c.362-.855 1.245-1.447 2.141-1.447.13 0 .286.026.403.065v1.736a3.542 3.542 0 0 0-.662-.066c-1.351 0-1.819.987-1.819 2.183v3.066h-1.843V32h1.754v1.279zM53.18 31.16H50.4v7.656h-2.038V31.16h-2.778v-1.735h7.595zm10.707-7.357c0-1.54 1.113-1.908 2.284-2.066 1.13-.172 2.183-.132 2.183-.895 0-.842-.546-.922-1.196-.922-.701 0-1.158.29-1.22 1.027h-1.844c.104-1.749 1.65-2.275 3.155-2.275 1.338 0 2.947.328 2.947 1.933v3.538c0 .619.065 1.237.234 1.513h-1.869A2.903 2.903 0 0 1 68.43 25c-.583.615-1.43.84-2.259.84-1.271 0-2.284-.646-2.284-2.037zM68.354 23v-.671c-.354.275-.962.29-1.533.395-.572.118-1.091.276-1.091.998 0 .697.534.868 1.13.868 1.44 0 1.494-1.157 1.494-1.59zm60.4-14.08c-.247 2.3-1.689 3.774-3.857 3.774-2.897 0-4.374-2.327-4.374-4.893 0-2.565 1.477-4.892 4.374-4.892 1.752 0 3.493 1.091 3.727 3.038h-.883c-.312-1.447-1.493-2.275-2.844-2.275-2.453 0-3.492 2.078-3.492 4.129 0 2.051 1.039 4.13 3.492 4.13 1.715 0 2.805-1.34 2.974-3.012zM11.142 38.606v.102c-3.53-.114-5.089.47-7.055-.869-.23.308-.35.734-.5 1.097-.278-.222-.877-.621-1.33-.738-.52.516-1.257.801-2.184.725-.127-.728.123-1.709.689-2.2-.11-.48-.502-.941-.762-1.333.333-.168.762-.391 1.052-.65-.641-.98-.87-1.47-.976-2.65L.162 26h.086c.527 1.818 1.231 3.848 2.236 5.346.285.425.343.535.516.786.184.31.611.943.597 2.022.403.077.797-.02 1.217-.051-.05.462-.107.551.01 1.308 1.744.067 2.077 1.146 3.957 2.131.86.458 1.219.637 2.361 1.065zm-7.76-3.224a.83.83 0 0 1 .22.247l.004.017c.52-.256.86-.252.86-.252-.132-.57-.009-.923-.009-.923l-1.071.903zm-.534-.197c.152-.24.248-.573.248-.573.5-1.663-1.096-2.727-1.8-4.613-.932-2.465-.768-2.546-1.031-3.557.27 3.405 1.274 6.213 2.245 8.79 0 0 .224-.07.338-.047zM1.906 36A.517.517 0 0 1 2 35.75v-.02c-.44-.257-.652-.594-.659-.648A.329.329 0 0 0 1.296 35h-.002c-.036.088-.51.445-.836.515.23.095 1.434.485 1.434.485zm.189.689l-1.67 1.82c.575.058 1.355-.305 1.74-.779.241-.285.222-.378.313-.73-.119-.068-.299-.193-.383-.311zm1.099-.95a.528.528 0 0 0-.755 0c-.206.261-.206.555.003.764a.53.53 0 0 0 .755-.002.543.543 0 0 0-.003-.763zm.09 1.183l-.009.005C3.173 37 3.058 37 2.942 37h-.014l.52 1.482c.064-.171.098-.573.342-.846-.328-.282-.396-.437-.505-.714zm5.968 1.203c-2.164-.79-2.942-2.426-4.572-2.333-.348.037-.68.107-.927.272.013.107-.023.232-.052.339h.022c1.36.832 4.337 1.783 6.898 2.155zm78.026-13.982c0 .619.065 1.237.234 1.513h-1.869a2.9 2.9 0 0 1-.131-.656c-.583.615-1.44.84-2.259.84C82 25.84 81 25.195 81 23.804c0-1.54 1.112-1.908 2.253-2.066 1.13-.172 2.182-.132 2.182-.895 0-.842-.545-.922-1.195-.922-.701 0-1.156.29-1.24 1.027h-1.824c.104-1.749 1.65-2.275 3.155-2.275 1.338 0 2.947.328 2.947 1.933zm-1.843-1.814c-.311.275-.96.29-1.532.395-.572.118-1.092.276-1.092.998 0 .697.535.868 1.13.868 1.442 0 1.494-1.157 1.494-1.59zm50.36-9.885c-.182.04-.312.053-.532.053-.83 0-.96-.497-.96-1.184h-.028c-.57.881-1.155 1.381-2.44 1.381-1.233 0-2.245-.618-2.245-1.986 0-1.907 1.828-1.973 3.595-2.184.674-.078 1.052-.17 1.052-.92 0-1.12-.792-1.396-1.752-1.396-1.013 0-1.766.476-1.792 1.58h-.819c.126-1.59 1.182-2.275 2.714-2.275 1.182 0 2.468.368 2.468 2.184V11.3c0 .315.154.5.48.5.09 0 .194-.027.258-.053zm-1.558-3.656h-.026c-.104.212-.467.263-.688.3-1.388.252-3.116.24-3.116 1.568 0 .83.727 1.344 1.492 1.344 1.247 0 2.351-.806 2.338-2.135zm-2.296 7.478h1.843v2.011a2.119 2.119 0 0 1-1.843 2.21v-.867c.661-.224.856-.684.856-1.33h-.856zm5.66 7.653h4.999v1.737h-7.036v-9.39h6.933V18h-4.895v2h4.493v1.618h-4.493zM118 18.856h1.325v1.25H118v3.368c0 .63.131.788.755.788.195 0 .375-.013.57-.053v1.46a7.055 7.055 0 0 1-1.077.066c-1.13 0-2.117-.264-2.117-1.618v-4.01H115v-1.25h1.13v-2.039H118zm10.52-2.59h1.845v9.39h-1.752v-.868h-.028c-.427.737-1.18 1.053-2.038 1.053-2.025 0-3.012-1.762-3.012-3.644 0-1.827 1-3.525 2.973-3.525.793 0 1.572.328 1.988 1.014h.024zM127 20.079c-1.205 0-1.62 1.054-1.62 2.169 0 1.068.48 2.186 1.62 2.186 1.223 0 1.585-1.08 1.585-2.197 0-1.104-.388-2.158-1.585-2.158zM91.333 6.209c-1.013 0-1.765.475-1.793 1.579h-.816c.076-1.59 1.18-2.275 2.713-2.275 1.18 0 2.466.368 2.466 2.184V11.3c0 .315.156.5.48.5.092 0 .194-.027.26-.053v.697c-.181.04-.311.053-.532.053-.831 0-.961-.497-.961-1.184h-.026c-.572.881-1.124 1.381-2.44 1.381-1.235 0-2.246-.618-2.246-1.986 0-1.907 1.83-1.973 3.562-2.184.708-.078 1.085-.17 1.085-.92 0-1.12-.792-1.396-1.752-1.396zm-2.077 4.447c0 .83.744 1.344 1.492 1.344 1.252 0 2.35-.806 2.337-2.135V8.788h-.026c-.059.212-.468.263-.687.3-1.372.252-3.116.24-3.116 1.568zm7.309 8.016c1.435 0 2.435.671 2.435 2.433v4.551h-1.825v-3.854c0-.907-.078-1.657-1.175-1.657-1 0-1.187.855-1.187 1.723v3.788H93v-3.814c0-.79 0-1.697-1.148-1.697-.363 0-1.247.238-1.247 1.565v3.946h-1.843v-6.8h1.74v.921h.025c.473-.697 1.183-1.105 2.053-1.105.843 0 1.596.328 1.96 1.132.39-.592 1.09-1.132 2.025-1.132zm15.213 0c1.961 0 2.453 1.117 2.453 2.802v4.182h-1.843v-3.84c0-1.119-.323-1.671-1.182-1.671-.999 0-1.427.567-1.427 1.947v3.564h-1.843v-6.8h1.752v.948h.039c.467-.804 1.273-1.132 2.05-1.132zM86.255 5.71h1.363v.698h-1.363V11c0 .523.077.84.661.878.234 0 .468-.013.702-.039v.71c-.247 0-.48.027-.728.027-1.09 0-1.466-.368-1.453-1.576V6.408h-1.17V5.71h1.17V3.672h.818zm21.86 5.499c-.351.88-1.417 1.485-2.39 1.485-2.039 0-3.011-1.694-3.011-3.59 0-1.921.972-3.591 3.01-3.591 1 0 1.975.487 2.276 1.487h.075V3.106h.817v9.391h-.752V11.21zm-2.39-5c-1.558 0-2.193 1.488-2.193 2.895 0 1.408.635 2.896 2.192 2.896 1.742 0 2.351-1.488 2.351-2.896 0-1.407-.609-2.895-2.35-2.895zM102 22.71c.051 1.183.621 1.724 1.647 1.724.74 0 1.353-.434 1.454-.883h1.622c-.518 1.605-1.622 2.29-3.14 2.29-2.118 0-3.428-1.472-3.428-3.578 0-2.038 1.388-3.591 3.427-3.591 2.285 0 3.418 1.946 3.26 4.038zm3-1.184c-.172-.946-.575-1.447-1.47-1.447-1.169 0-1.53.921-1.53 1.447z"></path></g></g></svg> 